<?xml version="1.0" encoding="UTF-8" standalone="no"?>
<!DOCTYPE svg PUBLIC "-//W3C//DTD SVG 1.1//EN" "http://www.w3.org/Graphics/SVG/1.1/DTD/svg11.dtd">
<svg width="100%" height="100%" viewBox="0 0 1800 600" version="1.1" xmlns="http://www.w3.org/2000/svg" xmlns:xlink="http://www.w3.org/1999/xlink" xml:space="preserve" xmlns:serif="http://www.serif.com/" style="fill-rule:evenodd;clip-rule:evenodd;">
    <g id="Artboard1" transform="matrix(0.870827,0,0,1.17878,0,0)">
        <rect x="0" y="0" width="2067" height="509" style="fill:none;"/>
        <g transform="matrix(1.14833,0,0,0.848333,-4360.22,-4670.08)">
            <g transform="matrix(1.54081,0,0,1.51093,4774.8,5890.17)">
                <g id="sunab_logo_main">
                    <g>
                        <g id="layer1" transform="matrix(1,0,0,1,-841.822,148.559)">
                            <path id="path6611" d="M934.187,-140.777C900.011,-140.764 871.406,-113.746 869.444,-79.626L998.876,-79.626C996.916,-113.726 968.344,-140.736 934.187,-140.777ZM869.542,-71.451C870.402,-58.96 874.859,-46.981 882.373,-36.967L982.694,-36.967L982.694,-44.41L990.745,-44.41C995.385,-52.722 998.14,-61.955 998.812,-71.451L869.542,-71.451Z" style="fill:rgb(240,184,11);fill-rule:nonzero;"/>
                            <path id="path4984" d="M1042.82,-50.247L1042.82,-61.911C1042.82,-63.639 1042.53,-64.743 1041.95,-65.223C1041.47,-65.799 1040.32,-66.087 1038.5,-66.087L1031.15,-66.087C1026.45,-66.087 1023.04,-67.143 1020.93,-69.255C1018.82,-71.463 1017.76,-74.631 1017.76,-78.759L1017.76,-93.591C1017.76,-97.815 1018.82,-100.983 1020.93,-103.095C1023.13,-105.303 1026.54,-106.407 1031.15,-106.407L1041.66,-106.407C1046.37,-106.407 1049.78,-105.303 1051.89,-103.095C1054.1,-100.983 1055.2,-97.815 1055.2,-93.591L1055.2,-86.823L1042.53,-86.823L1042.53,-92.295C1042.53,-94.023 1042.24,-95.127 1041.66,-95.607C1041.18,-96.183 1040.03,-96.471 1038.21,-96.471L1034.75,-96.471C1033.02,-96.471 1031.87,-96.183 1031.3,-95.607C1030.72,-95.127 1030.43,-94.023 1030.43,-92.295L1030.43,-80.199C1030.43,-78.471 1030.72,-77.319 1031.3,-76.743C1031.87,-76.263 1033.02,-76.023 1034.75,-76.023L1042.24,-76.023C1046.85,-76.023 1050.21,-74.919 1052.32,-72.711C1054.43,-70.599 1055.49,-67.431 1055.49,-63.207L1055.49,-48.807C1055.49,-44.679 1054.38,-41.511 1052.17,-39.303C1050.06,-37.191 1046.7,-36.135 1042.1,-36.135L1031.44,-36.135C1026.83,-36.135 1023.42,-37.191 1021.22,-39.303C1019.1,-41.511 1018.05,-44.679 1018.05,-48.807L1018.05,-55.719L1030.86,-55.719L1030.86,-50.247C1030.86,-48.615 1031.15,-47.511 1031.73,-46.935C1032.3,-46.359 1033.41,-46.071 1035.04,-46.071L1038.5,-46.071C1040.32,-46.071 1041.47,-46.359 1041.95,-46.935C1042.53,-47.511 1042.82,-48.615 1042.82,-50.247Z" style="fill:rgb(240,184,11);fill-rule:nonzero;"/>
                            <path id="path4986" d="M1066.45,-106.407L1079.41,-106.407L1079.41,-50.823C1079.41,-49.191 1079.7,-48.087 1080.27,-47.511C1080.85,-46.935 1082,-46.647 1083.73,-46.647L1088.77,-46.647C1090.4,-46.647 1091.6,-46.983 1092.37,-47.655C1093.14,-48.423 1093.52,-49.767 1093.52,-51.687L1093.52,-56.295L1094.1,-56.295L1094.1,-45.927C1094.1,-42.471 1093.23,-39.975 1091.51,-38.439C1089.78,-36.903 1087.47,-36.135 1084.59,-36.135L1079.41,-36.135C1074.99,-36.135 1071.73,-37.191 1069.62,-39.303C1067.51,-41.511 1066.45,-44.679 1066.45,-48.807L1066.45,-106.407ZM1093.52,-106.407L1106.48,-106.407L1106.48,-36.135L1093.52,-36.135L1093.52,-106.407Z" style="fill:rgb(240,184,11);fill-rule:nonzero;"/>
                            <path id="path4988" d="M1132.15,-36.135L1119.19,-36.135L1119.19,-106.407L1132.15,-106.407L1132.15,-36.135ZM1159.22,-36.135L1146.26,-36.135L1146.26,-91.719C1146.26,-93.447 1145.97,-94.551 1145.39,-95.031C1144.82,-95.607 1143.67,-95.895 1141.94,-95.895L1136.9,-95.895C1135.27,-95.895 1134.07,-95.511 1133.3,-94.743C1132.53,-93.975 1132.15,-92.679 1132.15,-90.855L1132.15,-86.247L1131.57,-86.247L1131.57,-96.615C1131.57,-100.071 1132.43,-102.567 1134.16,-104.103C1135.89,-105.639 1138.19,-106.407 1141.08,-106.407L1146.26,-106.407C1150.67,-106.407 1153.94,-105.303 1156.05,-103.095C1158.16,-100.983 1159.22,-97.815 1159.22,-93.591L1159.22,-36.135Z" style="fill:rgb(240,184,11);fill-rule:nonzero;"/>
                            <path id="path4990" d="M1195.25,-50.247L1195.25,-61.911C1195.25,-63.639 1194.96,-64.743 1194.39,-65.223C1193.91,-65.799 1192.76,-66.087 1190.93,-66.087L1183.59,-66.087C1178.88,-66.087 1175.48,-67.143 1173.37,-69.255C1171.25,-71.463 1170.2,-74.631 1170.2,-78.759L1170.2,-93.591C1170.2,-97.815 1171.25,-100.983 1173.37,-103.095C1175.57,-105.303 1178.98,-106.407 1183.59,-106.407L1194.1,-106.407C1198.81,-106.407 1202.21,-105.303 1204.33,-103.095C1206.53,-100.983 1207.64,-97.815 1207.64,-93.591L1207.64,-86.823L1194.96,-86.823L1194.96,-92.295C1194.96,-94.023 1194.68,-95.127 1194.1,-95.607C1193.62,-96.183 1192.47,-96.471 1190.64,-96.471L1187.19,-96.471C1185.46,-96.471 1184.31,-96.183 1183.73,-95.607C1183.16,-95.127 1182.87,-94.023 1182.87,-92.295L1182.87,-80.199C1182.87,-78.471 1183.16,-77.319 1183.73,-76.743C1184.31,-76.263 1185.46,-76.023 1187.19,-76.023L1194.68,-76.023C1199.29,-76.023 1202.64,-74.919 1204.76,-72.711C1206.87,-70.599 1207.92,-67.431 1207.92,-63.207L1207.92,-48.807C1207.92,-44.679 1206.82,-41.511 1204.61,-39.303C1202.5,-37.191 1199.14,-36.135 1194.53,-36.135L1183.88,-36.135C1179.27,-36.135 1175.86,-37.191 1173.65,-39.303C1171.54,-41.511 1170.49,-44.679 1170.49,-48.807L1170.49,-55.719L1183.3,-55.719L1183.3,-50.247C1183.3,-48.615 1183.59,-47.511 1184.16,-46.935C1184.74,-46.359 1185.85,-46.071 1187.48,-46.071L1190.93,-46.071C1192.76,-46.071 1193.91,-46.359 1194.39,-46.935C1194.96,-47.511 1195.25,-48.615 1195.25,-50.247Z" style="fill:rgb(14,16,17);fill-rule:nonzero;"/>
                            <path id="path4992" d="M1231.13,-68.823L1218.17,-68.823L1218.17,-93.591C1218.17,-97.815 1219.22,-100.983 1221.34,-103.095C1223.45,-105.303 1226.71,-106.407 1231.13,-106.407L1236.31,-106.407C1239.19,-106.407 1241.5,-105.639 1243.22,-104.103C1244.95,-102.567 1245.82,-100.071 1245.82,-96.615L1245.82,-86.967L1245.24,-86.967L1245.24,-90.855C1245.24,-92.679 1244.86,-93.975 1244.09,-94.743C1243.32,-95.511 1242.12,-95.895 1240.49,-95.895L1235.45,-95.895C1233.72,-95.895 1232.57,-95.607 1231.99,-95.031C1231.41,-94.551 1231.13,-93.447 1231.13,-91.719L1231.13,-68.823ZM1258.2,-36.135L1245.24,-36.135L1245.24,-106.407L1258.2,-106.407L1258.2,-36.135ZM1218.17,-73.719L1231.13,-73.719L1231.13,-50.823C1231.13,-49.191 1231.41,-48.087 1231.99,-47.511C1232.57,-46.935 1233.72,-46.647 1235.45,-46.647L1240.49,-46.647C1242.12,-46.647 1243.32,-46.983 1244.09,-47.655C1244.86,-48.423 1245.24,-49.767 1245.24,-51.687L1245.24,-55.431L1245.82,-55.431L1245.82,-45.927C1245.82,-42.471 1244.95,-39.975 1243.22,-38.439C1241.5,-36.903 1239.19,-36.135 1236.31,-36.135L1231.13,-36.135C1226.71,-36.135 1223.45,-37.191 1221.34,-39.303C1219.22,-41.511 1218.17,-44.679 1218.17,-48.807L1218.17,-73.719Z" style="fill:rgb(14,16,17);fill-rule:nonzero;"/>
                            <path id="path4994" d="M1297.85,-73.719L1310.81,-73.719L1310.81,-48.807C1310.81,-44.679 1309.76,-41.511 1307.64,-39.303C1305.53,-37.191 1302.27,-36.135 1297.85,-36.135L1292.67,-36.135C1289.79,-36.135 1287.49,-36.903 1285.76,-38.439C1284.03,-39.975 1283.16,-42.471 1283.16,-45.927L1283.16,-54.999L1283.74,-54.999L1283.74,-51.687C1283.74,-49.767 1284.12,-48.423 1284.89,-47.655C1285.66,-46.983 1286.86,-46.647 1288.49,-46.647L1293.53,-46.647C1295.26,-46.647 1296.41,-46.935 1296.99,-47.511C1297.57,-48.087 1297.85,-49.191 1297.85,-50.823L1297.85,-73.719ZM1310.81,-68.967L1297.85,-68.967L1297.85,-91.863C1297.85,-93.591 1297.57,-94.695 1296.99,-95.175C1296.41,-95.751 1295.26,-96.039 1293.53,-96.039L1288.49,-96.039C1286.86,-96.039 1285.66,-95.655 1284.89,-94.887C1284.12,-94.119 1283.74,-92.823 1283.74,-90.999L1283.74,-86.391L1283.16,-86.391L1283.16,-96.759C1283.16,-100.215 1284.03,-102.711 1285.76,-104.247C1287.49,-105.783 1289.79,-106.551 1292.67,-106.551L1297.85,-106.551C1302.27,-106.551 1305.53,-105.447 1307.64,-103.239C1309.76,-101.127 1310.81,-97.959 1310.81,-93.735L1310.81,-68.967ZM1270.78,-132.471L1283.74,-132.471L1283.74,-36.135L1270.78,-36.135L1270.78,-132.471Z" style="fill:rgb(14,16,17);fill-rule:nonzero;"/>
                        </g>
                        <g id="layer2" transform="matrix(1,0,0,1,-841.822,-1268.76)">
                            <path id="path1006-8-1" d="M983.866,1381.53L846.938,1381.53L874.078,1316.05L899.846,1360.52L919.095,1331.25L943.307,1373.03L989.536,1373.03L988.361,1375.08L987.649,1376.22L985.882,1378.82L984.566,1380.64L983.866,1381.53Z" style="fill:rgb(14,16,17);fill-rule:nonzero;stroke:rgb(14,16,17);stroke-width:0.88px;"/>
                        </g>
                    </g>
                </g>
            </g>
            <g transform="matrix(0.979802,0,0,0.960801,3705.5,5402.72)">
                <g transform="matrix(501.181,0,0,501.181,189,470)">
                    <path d="M0.294,-0.218L0.294,-0.145L0.089,-0.145L0.089,-0.218L0.294,-0.218ZM0.373,-0L0.282,-0L0.188,-0.548L0.103,-0L0.012,-0L0.123,-0.626L0.254,-0.626L0.373,-0Z" style="fill:rgb(240,184,11);fill-rule:nonzero;"/>
                </g>
                <g transform="matrix(501.181,0,0,501.181,381.955,470)">
                    <path d="M0.043,-0.488L0.133,-0.488L0.133,-0.102C0.133,-0.091 0.135,-0.083 0.139,-0.079C0.143,-0.075 0.151,-0.073 0.163,-0.073L0.198,-0.073C0.209,-0.073 0.218,-0.075 0.223,-0.08C0.228,-0.085 0.231,-0.095 0.231,-0.108L0.231,-0.14L0.235,-0.14L0.235,-0.068C0.235,-0.044 0.229,-0.027 0.217,-0.016C0.205,-0.005 0.189,-0 0.169,-0L0.133,-0C0.102,-0 0.08,-0.007 0.065,-0.022C0.05,-0.037 0.043,-0.059 0.043,-0.088L0.043,-0.488ZM0.231,-0.488L0.321,-0.488L0.321,-0L0.231,-0L0.231,-0.488Z" style="fill:rgb(240,184,11);fill-rule:nonzero;"/>
                </g>
                <g transform="matrix(501.181,0,0,501.181,564.885,470)">
                    <path d="M0.142,-0.571L0.142,-0.106C0.142,-0.095 0.144,-0.087 0.148,-0.083C0.152,-0.079 0.16,-0.077 0.171,-0.077L0.209,-0.077L0.209,-0L0.145,-0C0.112,-0 0.088,-0.007 0.073,-0.022C0.058,-0.037 0.051,-0.059 0.051,-0.088L0.051,-0.571L0.142,-0.571ZM0.209,-0.488L0.209,-0.415L0.005,-0.415L0.005,-0.488L0.209,-0.488Z" style="fill:rgb(240,184,11);fill-rule:nonzero;"/>
                </g>
                <g transform="matrix(501.181,0,0,501.181,674.644,470)">
                    <path d="M0.242,-0.16L0.242,-0.387C0.242,-0.4 0.24,-0.408 0.236,-0.411C0.233,-0.415 0.225,-0.417 0.212,-0.417L0.182,-0.417L0.182,-0.488L0.238,-0.488C0.271,-0.488 0.294,-0.48 0.309,-0.465C0.324,-0.45 0.331,-0.428 0.331,-0.399L0.331,-0.16L0.242,-0.16ZM0.242,-0.101L0.242,-0.202L0.331,-0.202L0.331,-0.088C0.331,-0.059 0.324,-0.037 0.309,-0.022C0.294,-0.007 0.271,-0 0.238,-0L0.177,-0L0.177,-0.071L0.212,-0.071C0.225,-0.071 0.233,-0.073 0.236,-0.077C0.24,-0.081 0.242,-0.089 0.242,-0.101ZM0.128,-0.387L0.128,-0.159L0.039,-0.159L0.039,-0.399C0.039,-0.428 0.046,-0.45 0.061,-0.465C0.076,-0.48 0.099,-0.488 0.131,-0.488L0.188,-0.488L0.188,-0.417L0.158,-0.417C0.146,-0.417 0.138,-0.415 0.134,-0.411C0.13,-0.408 0.128,-0.4 0.128,-0.387ZM0.128,-0.208L0.128,-0.101C0.128,-0.089 0.13,-0.081 0.134,-0.077C0.138,-0.073 0.146,-0.071 0.158,-0.071L0.185,-0.071L0.185,-0L0.131,-0C0.099,-0 0.076,-0.007 0.061,-0.022C0.046,-0.037 0.039,-0.059 0.039,-0.088L0.039,-0.208L0.128,-0.208Z" style="fill:rgb(240,184,11);fill-rule:nonzero;"/>
                </g>
                <g transform="matrix(501.181,0,0,501.181,860.081,470)">
                    <path d="M0.138,-0.526L0.138,-0.099C0.138,-0.088 0.14,-0.08 0.144,-0.076C0.148,-0.072 0.156,-0.07 0.168,-0.07L0.196,-0.07L0.196,0.001L0.14,0.001C0.108,0.001 0.084,-0.006 0.069,-0.021C0.054,-0.036 0.047,-0.059 0.047,-0.088L0.047,-0.538C0.047,-0.567 0.054,-0.588 0.069,-0.603C0.084,-0.618 0.108,-0.626 0.14,-0.626L0.202,-0.626L0.202,-0.555L0.168,-0.555C0.156,-0.555 0.148,-0.553 0.144,-0.549C0.14,-0.546 0.138,-0.538 0.138,-0.526ZM0.34,-0.322L0.34,-0.252L0.199,-0.252L0.199,-0.322L0.34,-0.322ZM0.249,-0.443L0.249,-0.526C0.249,-0.538 0.247,-0.546 0.243,-0.549C0.239,-0.553 0.231,-0.555 0.219,-0.555L0.186,-0.555L0.186,-0.626L0.247,-0.626C0.279,-0.626 0.302,-0.618 0.317,-0.603C0.332,-0.588 0.34,-0.567 0.34,-0.538L0.34,-0.443L0.249,-0.443ZM0.249,-0.099L0.249,-0.274L0.34,-0.274L0.34,-0.088C0.34,-0.059 0.332,-0.036 0.317,-0.021C0.302,-0.006 0.279,0.001 0.247,0.001L0.187,0.001L0.187,-0.07L0.219,-0.07C0.231,-0.07 0.239,-0.072 0.243,-0.076C0.247,-0.08 0.249,-0.088 0.249,-0.099Z" style="fill-rule:nonzero;"/>
                </g>
                <g transform="matrix(501.181,0,0,501.181,1051.53,470)">
                    <path d="M0.233,-0.489L0.233,-0.41L0.197,-0.41C0.155,-0.41 0.134,-0.386 0.134,-0.337L0.134,-0.316L0.13,-0.316L0.13,-0.401C0.13,-0.415 0.133,-0.429 0.139,-0.442C0.146,-0.456 0.155,-0.467 0.167,-0.476C0.18,-0.485 0.195,-0.489 0.213,-0.489L0.233,-0.489ZM0.134,-0L0.044,-0L0.044,-0.488L0.134,-0.488L0.134,-0Z" style="fill-rule:nonzero;"/>
                </g>
                <g transform="matrix(501.181,0,0,501.181,1170.81,470)">
                    <path d="M0.128,-0.227L0.038,-0.227L0.038,-0.399C0.038,-0.428 0.045,-0.45 0.06,-0.465C0.075,-0.48 0.097,-0.488 0.128,-0.488L0.164,-0.488C0.184,-0.488 0.2,-0.483 0.212,-0.472C0.224,-0.461 0.23,-0.444 0.23,-0.42L0.23,-0.353L0.226,-0.353L0.226,-0.38C0.226,-0.393 0.223,-0.402 0.218,-0.407C0.213,-0.412 0.204,-0.415 0.193,-0.415L0.158,-0.415C0.146,-0.415 0.138,-0.413 0.134,-0.409C0.13,-0.406 0.128,-0.398 0.128,-0.386L0.128,-0.227ZM0.316,-0L0.226,-0L0.226,-0.488L0.316,-0.488L0.316,-0ZM0.038,-0.261L0.128,-0.261L0.128,-0.102C0.128,-0.091 0.13,-0.083 0.134,-0.079C0.138,-0.075 0.146,-0.073 0.158,-0.073L0.193,-0.073C0.204,-0.073 0.213,-0.075 0.218,-0.08C0.223,-0.085 0.226,-0.095 0.226,-0.108L0.226,-0.134L0.23,-0.134L0.23,-0.068C0.23,-0.044 0.224,-0.027 0.212,-0.016C0.2,-0.005 0.184,-0 0.164,-0L0.128,-0C0.097,-0 0.075,-0.007 0.06,-0.022C0.045,-0.037 0.038,-0.059 0.038,-0.088L0.038,-0.261Z" style="fill-rule:nonzero;"/>
                </g>
                <g transform="matrix(501.181,0,0,501.181,1351.24,470)">
                    <path d="M0.128,-0.228L0.038,-0.228L0.038,-0.4C0.038,-0.429 0.045,-0.451 0.06,-0.466C0.075,-0.481 0.097,-0.489 0.128,-0.489L0.164,-0.489C0.184,-0.489 0.2,-0.484 0.212,-0.473C0.224,-0.462 0.23,-0.445 0.23,-0.421L0.23,-0.349L0.226,-0.349L0.226,-0.381C0.226,-0.394 0.223,-0.403 0.218,-0.408C0.213,-0.413 0.204,-0.416 0.193,-0.416L0.158,-0.416C0.146,-0.416 0.138,-0.414 0.134,-0.41C0.13,-0.407 0.128,-0.399 0.128,-0.387L0.128,-0.228ZM0.226,-0.669L0.316,-0.669L0.316,-0L0.226,-0L0.226,-0.669ZM0.038,-0.261L0.128,-0.261L0.128,-0.102C0.128,-0.091 0.13,-0.083 0.134,-0.079C0.138,-0.075 0.146,-0.073 0.158,-0.073L0.193,-0.073C0.204,-0.073 0.213,-0.075 0.218,-0.08C0.223,-0.085 0.226,-0.095 0.226,-0.108L0.226,-0.131L0.23,-0.131L0.23,-0.068C0.23,-0.044 0.224,-0.027 0.212,-0.016C0.2,-0.005 0.184,-0 0.164,-0L0.128,-0C0.097,-0 0.075,-0.007 0.06,-0.022C0.045,-0.037 0.038,-0.059 0.038,-0.088L0.038,-0.261Z" style="fill-rule:nonzero;"/>
                </g>
                <g transform="matrix(501.181,0,0,501.181,1531.66,470)">
                    <path d="M0.13,-0.388L0.13,-0.1C0.13,-0.089 0.132,-0.081 0.136,-0.077C0.14,-0.073 0.148,-0.071 0.16,-0.071L0.185,-0.071L0.185,-0L0.135,-0C0.103,-0 0.079,-0.007 0.064,-0.022C0.049,-0.037 0.042,-0.059 0.042,-0.088L0.042,-0.399C0.042,-0.428 0.049,-0.45 0.064,-0.465C0.079,-0.48 0.103,-0.488 0.135,-0.488L0.19,-0.488L0.19,-0.417L0.16,-0.417C0.148,-0.417 0.14,-0.415 0.136,-0.411C0.132,-0.408 0.13,-0.4 0.13,-0.388ZM0.238,-0.229L0.238,-0.388C0.238,-0.4 0.236,-0.408 0.232,-0.411C0.229,-0.415 0.221,-0.417 0.209,-0.417L0.177,-0.417L0.177,-0.488L0.233,-0.488C0.266,-0.488 0.289,-0.48 0.304,-0.465C0.319,-0.45 0.327,-0.428 0.327,-0.399L0.327,-0.229L0.238,-0.229ZM0.236,-0.101L0.236,-0.141L0.324,-0.141L0.324,-0.088C0.324,-0.059 0.317,-0.037 0.302,-0.022C0.287,-0.007 0.264,-0 0.231,-0L0.177,-0L0.177,-0.071L0.206,-0.071C0.219,-0.071 0.227,-0.073 0.23,-0.077C0.234,-0.081 0.236,-0.089 0.236,-0.101ZM0.327,-0.282L0.327,-0.216L0.074,-0.216L0.074,-0.282L0.327,-0.282Z" style="fill-rule:nonzero;"/>
                </g>
                <g transform="matrix(501.181,0,0,501.181,1712.09,470)">
                    <path d="M0.233,-0.489L0.233,-0.41L0.197,-0.41C0.155,-0.41 0.134,-0.386 0.134,-0.337L0.134,-0.316L0.13,-0.316L0.13,-0.401C0.13,-0.415 0.133,-0.429 0.139,-0.442C0.146,-0.456 0.155,-0.467 0.167,-0.476C0.18,-0.485 0.195,-0.489 0.213,-0.489L0.233,-0.489ZM0.134,-0L0.044,-0L0.044,-0.488L0.134,-0.488L0.134,-0Z" style="fill-rule:nonzero;"/>
                </g>
                <g transform="matrix(501.181,0,0,501.181,1831.37,470)">
                </g>
            </g>
            <g transform="matrix(1.08624,0,0,1.06823,3898.56,4965.65)">
                <g transform="matrix(204.07,0,0,204.07,629,1013)">
                    <path d="M0.232,-0.261L0.322,-0.261L0.322,-0.088C0.322,-0.059 0.315,-0.037 0.3,-0.022C0.285,-0.007 0.263,-0 0.232,-0L0.196,-0C0.176,-0 0.16,-0.005 0.148,-0.016C0.136,-0.027 0.13,-0.044 0.13,-0.068L0.13,-0.131L0.134,-0.131L0.134,-0.108C0.134,-0.095 0.137,-0.085 0.142,-0.08C0.147,-0.075 0.156,-0.073 0.167,-0.073L0.202,-0.073C0.214,-0.073 0.222,-0.075 0.226,-0.079C0.23,-0.083 0.232,-0.091 0.232,-0.102L0.232,-0.261ZM0.322,-0.228L0.232,-0.228L0.232,-0.387C0.232,-0.399 0.23,-0.407 0.226,-0.41C0.222,-0.414 0.214,-0.416 0.202,-0.416L0.167,-0.416C0.156,-0.416 0.147,-0.413 0.142,-0.408C0.137,-0.403 0.134,-0.394 0.134,-0.381L0.134,-0.349L0.13,-0.349L0.13,-0.421C0.13,-0.445 0.136,-0.462 0.148,-0.473C0.16,-0.484 0.176,-0.489 0.196,-0.489L0.232,-0.489C0.263,-0.489 0.285,-0.481 0.3,-0.466C0.315,-0.451 0.322,-0.429 0.322,-0.4L0.322,-0.228ZM0.044,-0.669L0.134,-0.669L0.134,-0L0.044,-0L0.044,-0.669Z" style="fill-rule:nonzero;"/>
                </g>
                <g transform="matrix(204.07,0,0,204.07,702.465,1013)">
                    <path d="M0.008,-0.488L0.1,-0.488L0.174,-0.079L0.243,-0.488L0.334,-0.488L0.231,0.047C0.224,0.076 0.212,0.099 0.193,0.114C0.175,0.13 0.149,0.138 0.116,0.138L0.056,0.138L0.056,0.066L0.097,0.066C0.111,0.066 0.122,0.064 0.131,0.059C0.14,0.055 0.146,0.046 0.149,0.033L0.159,-0.008L0.11,-0.008L0.008,-0.488Z" style="fill-rule:nonzero;"/>
                </g>
                <g transform="matrix(204.07,0,0,204.07,772.257,1013)">
                </g>
            </g>
        </g>
    </g>
</svg>
